<?xml version="1.0" encoding="utf-8"?>
<!-- Generator: Adobe Illustrator 27.0.0, SVG Export Plug-In . SVG Version: 6.00 Build 0)  -->
<svg version="1.1" id="Layer_1" xmlns="http://www.w3.org/2000/svg" xmlns:xlink="http://www.w3.org/1999/xlink" x="0px" y="0px"
	 viewBox="0 0 512 512" style="enable-background:new 0 0 512 512;" xml:space="preserve">
<style type="text/css">
	.st0{fill:#366695;}
	.st1{fill:#273B7A;}
	.st2{fill:#FFFFFF;}
	.st3{fill:#FFC61B;}
	.st4{fill:#FFEDB5;}
	.st5{fill:#E09112;}
	.st6{fill:#EAA22F;}
	.st7{fill:#FEE187;}
	.st8{fill:#FF5419;}
</style>
<circle class="st0" cx="256" cy="256" r="256"/>
<path class="st1" d="M278.2,511c124.3-10.7,223.2-110.1,233-234.6l-82.6-76.1l-106.3,84.1L230,201l-27.1,23.1l2.4,2.4l-86.2,67.9
	l-46.4,6.6l17,16.5l-6.3,2.2L278.2,511z"/>
<g>
	<rect x="83.4" y="297.4" class="st2" width="12.1" height="22.4"/>
	<rect x="217.4" y="297.4" class="st2" width="12.1" height="22.4"/>
</g>
<path class="st3" d="M226.2,256H86.7c-2.9,0-5.2-2.3-5.2-5.2v-46.4c0-2.9,2.3-5.2,5.2-5.2h139.5c2.9,0,5.2,2.3,5.2,5.2v46.4
	C231.4,253.7,229.1,256,226.2,256z"/>
<path class="st4" d="M204.5,261h-96.2c-2,0-3.6-1.6-3.6-3.6v-32c0-2,1.6-3.6,3.6-3.6h96.2c2,0,3.6,1.6,3.6,3.6v32
	C208.2,259.3,206.5,261,204.5,261z"/>
<path class="st5" d="M236.5,302.5H76.4c-2.9,0-5.2-2.3-5.2-5.2v-46.4c0-2.9,2.3-5.2,5.2-5.2h160.2c2.9,0,5.2,2.3,5.2,5.2v46.4
	C241.8,300.2,239.4,302.5,236.5,302.5z"/>
<g>
	<rect x="282.5" y="297.4" class="st2" width="12.1" height="22.4"/>
	<rect x="416.5" y="297.4" class="st2" width="12.1" height="22.4"/>
</g>
<path class="st6" d="M425.3,256H285.8c-2.9,0-5.2-2.3-5.2-5.2v-46.4c0-2.9,2.3-5.2,5.2-5.2h139.5c2.9,0,5.2,2.3,5.2,5.2v46.4
	C430.5,253.7,428.2,256,425.3,256z"/>
<path class="st7" d="M403.7,261h-96.2c-2,0-3.6-1.6-3.6-3.6v-32c0-2,1.6-3.6,3.6-3.6h96.2c2,0,3.6,1.6,3.6,3.6v32
	C407.3,259.3,405.7,261,403.7,261z"/>
<path class="st8" d="M435.6,302.5H275.5c-2.9,0-5.2-2.3-5.2-5.2v-46.4c0-2.9,2.3-5.2,5.2-5.2h160.2c2.9,0,5.2,2.3,5.2,5.2v46.4
	C440.9,300.2,438.5,302.5,435.6,302.5z"/>
</svg>
