<?xml version="1.0" encoding="utf-8"?>
<!-- Generator: Adobe Illustrator 27.0.0, SVG Export Plug-In . SVG Version: 6.00 Build 0)  -->
<svg version="1.1" id="Capa_1" xmlns="http://www.w3.org/2000/svg" xmlns:xlink="http://www.w3.org/1999/xlink" x="0px" y="0px"
	 viewBox="0 0 800 800" style="enable-background:new 0 0 800 800;" xml:space="preserve">
<style type="text/css">
	.st0{fill:#FFFFFF;stroke:#FFFFFF;stroke-width:1.6403;stroke-miterlimit:6.5612;}
</style>
<g id="SVGRepo_bgCarrier">
</g>
<g id="SVGRepo_tracerCarrier">
</g>
<g id="SVGRepo_iconCarrier">
	<g>
		<path class="st0" d="M425.9,137.4C281,137.4,163.2,255.2,163.2,400S281,662.6,425.9,662.6S688.5,544.8,688.5,400
			S570.7,137.4,425.9,137.4z M425.9,648.7c-137.1,0-248.7-111.6-248.7-248.7s111.6-248.7,248.7-248.7S674.5,262.9,674.5,400
			C674.5,537.1,563,648.7,425.9,648.7z"/>
		<path class="st0" d="M425.9,168.1C298,168.1,194,272.1,194,400s104,231.9,231.9,231.9s231.9-104,231.9-231.9
			S553.7,168.1,425.9,168.1z M208,393.5C211.4,276.3,307.8,182,425.9,182c118.4,0,215,94.9,217.9,212.5c-0.2,20.7-17.2,37.6-38,37.6
			c-20.9,0-38-17-38-38c0-3.9-3.1-7-7-7c-3.8,0-7,3.1-7,7c0,20.9-17,38-38,38c-21,0-38-17-38-38c0-3.9-3.1-7-7-7c-3.8,0-7,3.1-7,7
			c0,20.9-17,38-38,38c-20.9,0-38-17-38-38c0-3.9-3.1-7-7-7c-3.8,0-7,3.1-7,7c0,20.9-17,38-38,38c-20.9,0-38-17-38-38
			c0-3.9-3.1-7-7-7c-3.8,0-7,3.1-7,7c0,20.9-17,38-38,38s-38-17-38-38C208.1,393.9,208,393.7,208,393.5z M425.9,618
			c-110.3,0-201.7-82.3-216-188.8c8.6,10.4,21.1,16.9,36.2,16.9c19.2,0,36-10.5,45-26c9,15.5,25.8,26,45,26s36-10.5,45-26
			c9,15.5,25.8,26,45,26c19.2,0,36-10.5,45-26c9,15.5,25.8,26,45,26c19.2,0,36-10.5,45-26c9,15.5,25.8,26,45,26
			c15.2,0,27.7-6.8,36.2-17.4C627.8,535.4,536.3,618,425.9,618z"/>
		<path class="st0" d="M425.9,223.2c97.5,0,176.8,79.3,176.8,176.8c0,3.8,3.1,7,7,7s7-3.1,7-7c0-105.2-85.6-190.7-190.7-190.7
			c-3.8,0-7,3.1-7,7C418.9,220.1,422,223.2,425.9,223.2z"/>
		<path class="st0" d="M205.4,215c17.7,0,32.2-14.4,32.2-32.2s-14.4-32.2-32.2-32.2s-32.2,14.4-32.2,32.2S187.6,215,205.4,215z
			 M205.4,164.6c10.1,0,18.2,8.2,18.2,18.2c0,10.1-8.2,18.2-18.2,18.2c-10.1,0-18.2-8.2-18.2-18.2
			C187.2,172.8,195.3,164.6,205.4,164.6z"/>
		<path class="st0" d="M205.4,589.1c-17.7,0-32.2,14.4-32.2,32.2c0,17.7,14.4,32.2,32.2,32.2s32.2-14.4,32.2-32.2
			C237.6,603.5,223.1,589.1,205.4,589.1z M205.4,639.5c-10.1,0-18.2-8.2-18.2-18.2c0-10.1,8.2-18.2,18.2-18.2
			c10.1,0,18.2,8.2,18.2,18.2C223.6,631.3,215.4,639.5,205.4,639.5z"/>
		<path class="st0" d="M649.9,215c17.7,0,32.2-14.4,32.2-32.2s-14.4-32.2-32.2-32.2c-17.7,0-32.2,14.4-32.2,32.2
			S632.2,215,649.9,215z M649.9,164.6c10.1,0,18.2,8.2,18.2,18.2c0,10.1-8.2,18.2-18.2,18.2s-18.2-8.2-18.2-18.2
			C631.7,172.8,639.8,164.6,649.9,164.6z"/>
		<path class="st0" d="M649.9,589.1c-17.7,0-32.2,14.4-32.2,32.2c0,17.7,14.4,32.2,32.2,32.2s32.2-14.4,32.2-32.2
			C682.1,603.5,667.6,589.1,649.9,589.1z M649.9,639.5c-10.1,0-18.2-8.2-18.2-18.2c0-10.1,8.2-18.2,18.2-18.2s18.2,8.2,18.2,18.2
			C668.1,631.3,660,639.5,649.9,639.5z"/>
		<path class="st0" d="M690.4,135.4C619.7,64.8,525.8,25.9,425.9,25.9C290,25.9,165.1,99.3,99,217.9H30.9c-17,0-30.9,13.9-30.9,30.9
			v10.6c0,14.7,10.4,27.1,24.2,30.2v241.8C10.4,534.4,0,546.8,0,561.5v10.6c0,17,13.9,30.9,30.9,30.9h69.7c3.5,0,6.8-0.6,10-1.7
			c32.7,51,77.5,93.8,130.2,123.8c56.1,32,120.1,49,185.1,49c99.9,0,193.9-38.9,264.6-109.6C761.1,593.9,800,499.9,800,400
			S761.1,206.1,690.4,135.4z M13.9,259.4v-10.6c0-9.4,7.6-17,17-17h69.7c0.6,0,1.2,0,1.7,0.1c0,0,0,0,0,0
			c8.5,0.9,15.2,8.1,15.2,16.9v10.6c0,9.4-7.6,17-17,17H30.9C21.6,276.4,13.9,268.8,13.9,259.4z M56.1,444.3c3.8,0,7-3.1,7-7v-147
			h30.3v240.3H38.1V290.3h11v147C49.1,441.2,52.3,444.3,56.1,444.3z M117.5,572.1c0,6.1-3.2,11.4-8,14.4c-2.6,1.6-5.6,2.6-8.9,2.6
			H30.9c-9.4,0-17-7.6-17-17v-10.6c0-9.4,7.6-17,17-17h69.7c9.4,0,17,7.6,17,17V572.1z M425.9,760.2c-123.8,0-236.8-62-303.5-166.2
			c5.6-5.6,9.1-13.3,9.1-21.9v-10.6c0-14.7-10.4-27.1-24.2-30.1V289.6c13.8-3.1,24.2-15.4,24.2-30.1v-10.6
			c0-12.5-7.4-23.2-18.1-28.1C177.6,108.9,296.6,39.8,425.9,39.8c198.6,0,360.2,161.6,360.2,360.2S624.5,760.2,425.9,760.2z"/>
	</g>
</g>
</svg>
