<?xml version="1.0" encoding="utf-8"?>
<!-- Generator: Adobe Illustrator 27.0.0, SVG Export Plug-In . SVG Version: 6.00 Build 0)  -->
<svg version="1.1" id="Layer_1" xmlns="http://www.w3.org/2000/svg" xmlns:xlink="http://www.w3.org/1999/xlink" x="0px" y="0px"
	 viewBox="0 0 800 800" style="enable-background:new 0 0 800 800;" xml:space="preserve">
<style type="text/css">
	.st0{fill:#A3D5E0;}
	.st1{fill:#C7C8C9;}
	.st2{fill:#2A3F49;}
	.st3{fill:#AF9604;}
	.st4{fill:#172023;}
	.st5{fill:#FFFFFF;}
	.st6{fill:#E2A379;}
	.st7{fill:#4C230C;}
	.st8{fill:#F4B382;}
	.st9{fill:#191919;}
	.st10{fill:#B7B7B6;}
	.st11{fill:#D4D6D8;}
	.st12{fill:#334D5C;}
</style>
<path class="st0" d="M400,0C179.1,0,0,179.1,0,400s179.1,400,400,400s400-179.1,400-400S620.9,0,400,0z"/>
<polygon class="st1" points="399.7,511.1 335.8,519.6 338.9,540.7 399.5,586.1 461.1,540.7 464.2,519.6 "/>
<path class="st2" d="M674.7,617.2c-13.7-44-130.9-79.5-275.4-79.5S139,573.2,125.3,617.2c-4.2,13.7-8.9,35.8-13.4,60.3
	C184.6,753.1,286.8,800,400,800s215.4-47.1,288.1-122.5C683.8,653,679.1,630.7,674.7,617.2z"/>
<g>
	<polygon class="st3" points="524,747.4 525.9,735.3 515.3,741 504.5,735.3 506.4,747.4 497.7,755.8 509.8,757.6 515.1,768.6 
		520.6,757.6 532.7,756 	"/>
	<polygon class="st3" points="501.7,702.9 507.2,733.7 515,737.9 523.3,733.7 528.8,702.9 	"/>
</g>
<g>
	<path class="st4" d="M237.6,554.5c-2.7,0.6-5.3,1.3-7.9,1.9l4.8,24l-12.4,2.6l-4.8-23.2c-2.6,0.8-5.2,1.5-7.7,2.3l4.7,22.6
		l28.4-5.8L237.6,554.5z"/>
	<path class="st4" d="M281.3,546.1c-3.5,0.5-7.1,1.1-10.5,1.8l5,24.2l10.5-2.1L281.3,546.1z"/>
	<path class="st4" d="M258.3,550.1c-2.7,0.5-5.5,1.1-8.1,1.6l5,24.5l8.1-1.6L258.3,550.1z"/>
	<path class="st4" d="M197.5,565.9c-3.5,1.3-6.9,2.4-10.2,3.7l4,19.7l10.5-2.1L197.5,565.9z"/>
</g>
<g>
	<path class="st3" d="M270.7,547.8c-4.2,0.6-8.4,1.5-12.6,2.3l5,24.5l12.4-2.6L270.7,547.8z"/>
	<path class="st3" d="M209.8,561.9c-4.2,1.3-8.2,2.6-12.3,4l4.4,21.3l12.4-2.6L209.8,561.9z"/>
	<path class="st3" d="M229.7,556.4c-4.2,1.1-8.4,2.1-12.3,3.2l4.8,23.2l12.4-2.6L229.7,556.4z"/>
	<path class="st3" d="M250.1,551.7c-4.2,0.8-8.4,1.8-12.4,2.7l5,24.3l12.4-2.6L250.1,551.7z"/>
</g>
<g>
	<path class="st4" d="M516.6,545.9l-4.8,23.9l10.5,2.1l5-24.3C523.7,547,520.3,546.4,516.6,545.9z"/>
	<path class="st4" d="M580.6,559.3l-4.8,23.7l-12.4-2.6l5-24.3c-2.6-0.6-5.3-1.3-7.9-1.9l-5,24.7l28.4,5.8l4.7-23.1
		C585.7,560.7,583.2,559.9,580.6,559.3z"/>
	<path class="st4" d="M539.8,549.8l-5,24.7l8.1,1.6l5-24.8C545.1,550.9,542.5,550.4,539.8,549.8z"/>
	<path class="st4" d="M600.4,565.4l-4.5,21.8l10.5,2.1l4.2-20.3C607.3,567.7,604,566.5,600.4,565.4z"/>
</g>
<g>
	<path class="st3" d="M527.2,547.5l-5,24.3l12.4,2.6l5-24.7C535.6,549,531.4,548.3,527.2,547.5z"/>
	<path class="st3" d="M588.3,561.5l-4.7,23.1l12.4,2.6l4.5-21.8C596.5,564,592.5,562.7,588.3,561.5z"/>
	<path class="st3" d="M568.2,556.1l-5,24.3l12.4,2.6l4.8-23.7C576.5,558.2,572.3,557,568.2,556.1z"/>
	<path class="st3" d="M547.8,551.4l-5,24.8l12.4,2.6l5-24.7C556.2,553.2,552,552.4,547.8,551.4z"/>
</g>
<path class="st5" d="M399.4,537.5C254.9,537.5,400,800,400,800S543.8,537.5,399.4,537.5z"/>
<polygon class="st4" points="400,581.2 374.5,594 400,635.2 425.3,594 "/>
<g>
	<path class="st6" d="M462.7,454.8H337.3c19.5,59,1.6,85.9,1.6,85.9l43.4,9.8h35.5l43.4-9.8C461.1,540.7,443.2,513.8,462.7,454.8z"
		/>
	<path class="st6" d="M399.7,511.1l-60.8,29.7c0,0,27.1,45.3,60.6,45.3s61.6-45.3,61.6-45.3L399.7,511.1z"/>
</g>
<path class="st7" d="M400,99.3c-78.5,0-142.4,34.2-142.4,183.2c0,50.5,10,90,25,120.4c32.9,67.1,54.5,90.4,117.4,90.4
	s84.5-23.4,117.4-90.4c15-30.5,25-70,25-120.4C542.4,133.5,478.5,99.3,400,99.3z"/>
<g>
	<path class="st8" d="M400,99.3c-78.5,0-124.6,34.2-124.6,183.2c0,12.1,6.6,48.5,6.6,48.5c-0.2,23.9,60,106.1,118,106.1
		s117.2-82.2,117.2-104c0,0,7.4-38,7.4-50.6C524.6,133.5,478.5,99.3,400,99.3z"/>
	<path class="st8" d="M260.2,287c-13.5,2.3-24,8.2-16.3,53s17.3,46.9,30.8,44.7L260.2,287z"/>
	<path class="st8" d="M539.9,287l-14.5,97.7c13.5,2.3,23.1,0.2,30.8-44.7C563.8,295.2,553.5,289.4,539.9,287z"/>
</g>
<g>
	<path class="st7" d="M400,95.3c-93.5,0-142.4,38.2-142.4,187.2l62.6-110.3c0,0,44.3,6.9,79.8,6.9s74.5-6.9,74.5-6.9l67.9,110.3
		C542.4,133.5,493.5,95.3,400,95.3z"/>
	<path class="st7" d="M290.4,223.5l-23.5,3.5c-6.8,17.6-9,39.3-9,60.5c0,0,14.2-3.1,14.2,4.2l4.5,44.5l6.3-3.1
		C282.1,296,290.4,223.5,290.4,223.5z"/>
</g>
<path class="st9" d="M513.3,186.5L400,167.2l-138.3,19.3l-4.8,5.6l6.9,9c0,0-0.3,23.4,22.4,23.4s50.9-8.9,113.8-8.9
	s90.8,8.9,113.8,8.9c23.2,0,22.9-24,22.9-24l6.4-8.4L513.3,186.5z"/>
<path class="st5" d="M559.3,119c0,0-61.6-56.4-159.6-56.4S240.5,119,240.5,119s-16.9,16.9-3.2,40.3c0.5,0.8,1,1.6,1.5,2.3
	c7.4,11,22.7,25,22.7,25l-4.8,5.6c0,0,80.3-27.4,143.2-27.4S543,192.2,543,192.2l-4.8-5.6c0,0,15-13.7,22.6-24.7
	c0.6-1,1.3-1.8,1.8-2.7C576.2,135.9,559.3,119,559.3,119z"/>
<path class="st10" d="M423.1,111.2l-9.8,12.1h5.5c-1.1,7.4-7.4,13.4-15.5,14.7l-0.2-26.6h7.3c1.6,0,2.7-1.5,2.7-3.2
	c0-1.8-1.3-3.2-2.7-3.2h-7.3v-8.1c4-1.5,6.8-5.3,6.8-9.8c0-5.6-4.8-10.3-10.5-10.3c-5.8,0-10.5,4.7-10.5,10.5c0,4.5,3.1,8.5,7.4,9.8
	v7.9h-6.4c-1.6,0-2.7,1.5-2.7,3.2c0,1.8,1.3,3.2,2.7,3.2h6.4l0.2,26.3c-7.7-1.5-13.5-7.3-14.7-14.3h5l-9.2-11.9l-9.8,12.1h5.8
	c1.9,11.8,11.4,20.8,23.5,22.1c0.6,1.1,1.6,1.9,2.7,1.9s2.1-0.6,2.7-1.8c12.4-1.1,22.4-10.3,24.2-22.4h5.5L423.1,111.2z M401.5,89.6
	c-1.1-1-2.9-1-4,0.2c-1-0.6-1.6-1.6-1.6-2.7c0-1.8,1.5-3.2,3.4-3.4c1.9,0,3.4,1.5,3.4,3.2C402.6,88.2,402.3,89,401.5,89.6z"/>
<path class="st3" d="M538.8,186.9c-23.4-9.8-74.5-27.6-138.8-27.6S284.6,177,261.2,186.9l-4.7,5.5l6.9,9.2
	c24.3-13.4,74.2-26.9,136.6-26.9s112.2,13.4,136.6,26.9l6.9-9.2L538.8,186.9z"/>
<path class="st7" d="M533.3,227l-23.5-0.6c0,0,8.2,69.6,7.9,106.7l6.3,3.1l4.5-44.5c0-7.3,14.2-4.2,14.2-4.2
	C542.5,266.2,540.3,244.6,533.3,227z"/>
<g>
	<polygon class="st11" points="464.2,519.6 400,586.7 459,603.1 493,544.6 	"/>
	<polygon class="st11" points="335.8,519.6 307,544.6 341,603.1 400,586.7 	"/>
</g>
<path class="st12" d="M400,789.8l-81.3-248.4l-1.8-5.5l-20.2,8.4l-31.4,78.2l102.7,176.2c10.5,0.8,21.1,1.3,31.9,1.3V789.8z"/>
<path class="st2" d="M502.2,544L502.2,544L502.2,544L502.2,544z"/>
<path class="st12" d="M503.2,544.3l-1-0.3l0,0l0,0l-19.2-8.1l-1.8,5.6L400,789.8v10c10.8,0,21.4-0.5,31.9-1.3l102.7-176.1
	L503.2,544.3z"/>
<path class="st4" d="M430.5,676.3c-3.2-36.4-24.8-62.1-24.8-62.1H400v1.1v-1.1h-5.6c0,0-21.6,25.6-24.8,62.1
	c-0.5,4.7-0.8,10.2-1.3,16.3L400,790l0,0l31.9-97.5C431.4,686.5,431,681,430.5,676.3z"/>
<path class="st7" d="M470.9,404.2c0-10.5-31-22.9-65.1-24.3c-1.6,0-5.5,3.7-5.8,3.7c-0.3,0-4-3.9-5.5-3.7
	c-34.3,1.5-65.3,13.9-65.3,24.3c0,3.2-2.6,27.1,9.4,20.2c9.8-12.7,31.9-22.6,55.6-23.4c1.9,0,3.9,1.6,6,1.6c2.1,0,4.2-1.6,6.1-1.6
	c23.5,1,44.5,9,55.3,23.4C473.5,431.3,470.9,407.6,470.9,404.2z"/>
</svg>
