<?xml version="1.0" encoding="utf-8"?>
<!-- Generator: Adobe Illustrator 27.0.0, SVG Export Plug-In . SVG Version: 6.00 Build 0)  -->
<svg version="1.1" id="Layer_1" xmlns="http://www.w3.org/2000/svg" xmlns:xlink="http://www.w3.org/1999/xlink" x="0px" y="0px"
	 viewBox="0 0 800 800" style="enable-background:new 0 0 800 800;" xml:space="preserve">
<style type="text/css">
	.st0{fill:#263A7A;}
	.st1{fill:#121149;}
	.st2{fill:#FEE187;}
	.st3{fill:#FFC61B;}
	.st4{fill:#C92F00;}
	.st5{fill:#930000;}
</style>
<circle class="st0" cx="400" cy="400" r="400"/>
<path class="st1" d="M414.2,799.7c209.8-7.3,378.5-176.3,385.5-386.2L525.4,139.2l-130.8,8.5l-125,125l133.7,133.7l-133,249.4
	L414.2,799.7z"/>
<path class="st2" d="M450.9,255.9c0,30-24.4,54.4-54.4,54.4s-54.4-24.4-54.4-54.4s24.4-54.4,54.4-54.4h136.8v-44.8
	c0-12.9-10.5-23.3-23.3-23.3H290c-12.9,0-23.3,10.5-23.3,23.3v486.6c0,12.9,10.5,23.3,23.3,23.3h220c12.9,0,23.3-10.5,23.3-23.3
	V255.9H450.9z"/>
<g>
	<path class="st3" d="M510,666.7c12.9,0,23.3-10.5,23.3-23.3V255.9h-82.4c0,29.2-23,52.9-51.8,54.3v356.5L510,666.7L510,666.7z"/>
	<path class="st3" d="M533.3,201.5v-44.8c0-12.9-10.5-23.3-23.3-23.3H399.1v68.1H533.3z"/>
</g>
<path class="st4" d="M400,417.5c-54.2,0-98.3,44.1-98.3,98.3s44.1,98.3,98.3,98.3s98.3-44.1,98.3-98.3S454.2,417.5,400,417.5z
	 M320.5,515.8c0-43.8,35.6-79.5,79.5-79.5c18.5,0,35.6,6.4,49.1,17L337.6,564.9C326.9,551.4,320.5,534.3,320.5,515.8z M400,595.3
	c-18.5,0-35.6-6.4-49.1-17l111.5-111.5c10.7,13.5,17,30.6,17,49.1C479.5,559.6,443.8,595.3,400,595.3z"/>
<path class="st5" d="M400,417.5c-0.3,0-0.6,0-0.9,0v18.9c0.3,0,0.6,0,0.9,0c18.5,0,35.6,6.4,49.1,17l-50,50V530l63.3-63.3
	c10.7,13.5,17,30.6,17,49.1c0,43.8-35.6,79.5-79.5,79.5c-0.3,0-0.6,0-0.9,0v18.9c0.3,0,0.6,0,0.9,0c54.2,0,98.3-44.1,98.3-98.3
	S454.2,417.5,400,417.5z"/>
</svg>
