<?xml version="1.0" encoding="utf-8"?>
<!-- Generator: Adobe Illustrator 27.0.0, SVG Export Plug-In . SVG Version: 6.00 Build 0)  -->
<svg version="1.1" id="exchange-euro" xmlns="http://www.w3.org/2000/svg" xmlns:xlink="http://www.w3.org/1999/xlink" x="0px"
	 y="0px" viewBox="0 0 800 800" style="enable-background:new 0 0 800 800;" xml:space="preserve">
<style type="text/css">
	.st0{fill:#7ED0EC;}
	.st1{fill:none;stroke:#2CA9BC;stroke-width:55.5556;stroke-linecap:round;stroke-linejoin:round;stroke-miterlimit:111.1111;}
	.st2{fill:none;stroke:#000000;stroke-width:55.5556;stroke-linecap:round;stroke-linejoin:round;stroke-miterlimit:111.1111;}
</style>
<g id="SVGRepo_bgCarrier">
	<path class="st0" d="M400,0L400,0c220.9,0,400,179.1,400,400l0,0c0,220.9-179.1,400-400,400l0,0C179.1,800,0,620.9,0,400l0,0
		C0,179.1,179.1,0,400,0z"/>
</g>
<g id="SVGRepo_tracerCarrier">
</g>
<g id="SVGRepo_iconCarrier">
	<path id="secondary" class="st1" d="M213.9,278.9c67.1-102.8,204.8-131.7,307.5-64.7c62.8,41,100.7,110.8,100.8,185.8"/>
	<path id="secondary-2" class="st1" d="M177.8,400c-0.1,22.1,3.2,44.1,9.7,65.3c36.2,117.3,160.7,183,277.9,146.7
		c49.7-15.3,92.4-47.6,120.7-91.2"/>
	<polyline id="secondary-3" class="st1" points="594.4,372.2 622.2,400 650,372.2 	"/>
	<polyline id="secondary-4" class="st1" points="205.6,427.8 177.8,400 150,427.8 	"/>
	<line id="primary" class="st2" x1="316.7" y1="400" x2="372.2" y2="400"/>
	<path id="primary-2" class="st2" d="M455.6,338.1c-15.3-13.7-35-21.3-55.6-21.4l0,0c-46,0-83.3,37.3-83.3,83.3l0,0
		c0,46,37.3,83.3,83.3,83.3l0,0c20.5,0,40.3-7.7,55.6-21.4"/>
</g>
</svg>
