<?xml version="1.0" encoding="utf-8"?>
<!-- Generator: Adobe Illustrator 27.0.0, SVG Export Plug-In . SVG Version: 6.00 Build 0)  -->
<svg version="1.1" id="Layer_1" xmlns="http://www.w3.org/2000/svg" xmlns:xlink="http://www.w3.org/1999/xlink" x="0px" y="0px"
	 viewBox="0 0 473.9 473.9" style="enable-background:new 0 0 473.9 473.9;" xml:space="preserve">
<style type="text/css">
	.st0{fill:#6EC2CB;}
	.st1{fill:#F5DFB5;}
	.st2{fill:#F2E8D3;}
	.st3{fill:#ECE1D0;}
	.st4{fill:#E8C790;}
</style>
<circle class="st0" cx="237" cy="237" r="237"/>
<g>
	<path class="st1" d="M343.5,362.4c5.3,5.3,5.3,14,0,19.4l-13.6,13.6c-5.3,5.3-14,5.3-19.4,0l-231-231c-5.3-5.3-5.3-14,0-19.3
		l13.6-13.6c5.3-5.3,14-5.3,19.3,0L343.5,362.4z"/>
	
		<rect x="191.4" y="62.7" transform="matrix(0.7071 -0.7071 0.7071 0.7071 -100.8259 236.4262)" class="st2" width="87.2" height="354.4"/>
	<polygon class="st3" points="362.8,362.7 329.5,396 78.9,145.4 110.3,114 	"/>
	<g>
		<polygon class="st4" points="163.8,107.3 127.3,143.8 119.7,136.2 156.2,99.7 		"/>
		<polygon class="st4" points="205.7,149.2 169.2,185.8 161.6,178.1 198.1,141.6 		"/>
		
			<rect x="199.8" y="200.3" transform="matrix(0.707 -0.7072 0.7072 0.707 -79.3331 219.7944)" class="st4" width="51.6" height="10.8"/>
		<polygon class="st4" points="289.6,233.1 253.1,269.6 245.5,262 282,225.5 		"/>
		
			<rect x="158.6" y="127.4" transform="matrix(0.707 -0.7073 0.7073 0.707 -43.6835 160.0623)" class="st4" width="25.4" height="10.8"/>
		
			<rect x="200.6" y="169.3" transform="matrix(0.7074 -0.7068 0.7068 0.7074 -61.1054 201.846)" class="st4" width="25.3" height="10.8"/>
		
			<rect x="242.5" y="211.2" transform="matrix(0.7072 -0.707 0.707 0.7072 -78.4402 243.8413)" class="st4" width="25.4" height="10.8"/>
		
			<rect x="286.4" y="286.8" transform="matrix(0.7071 -0.7071 0.7071 0.7071 -115.1787 306.3387)" class="st4" width="51.7" height="10.8"/>
		
			<rect x="328.3" y="328.7" transform="matrix(0.7072 -0.707 0.707 0.7072 -132.5174 348.1837)" class="st4" width="51.6" height="10.8"/>
		
			<rect x="287.2" y="255.9" transform="matrix(0.7071 -0.7071 0.7071 0.7071 -96.9436 288.547)" class="st4" width="25.4" height="10.8"/>
		
			<rect x="329.1" y="297.8" transform="matrix(0.707 -0.7072 0.7072 0.707 -114.2796 330.5239)" class="st4" width="25.3" height="10.8"/>
	</g>
</g>
</svg>
