<?xml version="1.0" encoding="utf-8"?>
<!-- Generator: Adobe Illustrator 27.0.0, SVG Export Plug-In . SVG Version: 6.00 Build 0)  -->
<svg version="1.1" id="Capa_1" xmlns="http://www.w3.org/2000/svg" xmlns:xlink="http://www.w3.org/1999/xlink" x="0px" y="0px"
	 viewBox="0 0 800 800" style="enable-background:new 0 0 800 800;" xml:space="preserve">
<style type="text/css">
	.st0{fill:#68C5DB;}
</style>
<g id="SVGRepo_bgCarrier">
</g>
<g id="SVGRepo_tracerCarrier">
</g>
<g id="SVGRepo_iconCarrier">
	<g>
		<g>
			<path class="st0" d="M483.1,483.1l-33.4-23.3l-32,178.3c117.7-8.7,211.8-102.8,220.5-220.5l-178.3,32L483.1,483.1z M417.6,161.9
				l32,178.3l33.4-23.3l-23.3,33.4l178.3,32C629.5,264.7,535.3,170.5,417.6,161.9z M400,374.7l26.5-18.5h-53.1L400,374.7z
				 M317,483.1l23.3-33.4l-178.3-32c8.7,117.7,102.8,211.8,220.5,220.5l-32-178.3L317,483.1z M400,421.6L378.4,400l21.6-21.6
				l21.6,21.6L400,421.6z M317,317l33.4,23.3l32-178.3c-117.7,8.7-211.8,102.8-220.5,220.5l178.3-32L317,317z M400,425.3l-26.5,18.5
				h53.1L400,425.3z M443.8,373.5L425.3,400l18.5,26.5L443.8,373.5L443.8,373.5z M356.3,426.5l18.5-26.5l-18.5-26.5V426.5z"/>
			<path class="st0" d="M400,0C179.1,0,0,179.1,0,400s179.1,400,400,400s400-179.1,400-400S620.9,0,400,0z M410.2,679.1l-10.2,57
				l-10.2-57c-146-5.3-263.6-122.9-268.9-268.9l-57-10.2l57-10.2c5.3-146,122.9-263.6,268.9-268.9l10.2-57l10.2,57
				c146,5.3,263.6,122.9,268.9,268.9l57,10.2l-57,10.2C673.8,556.2,556.2,673.8,410.2,679.1z"/>
		</g>
	</g>
</g>
</svg>
