<?xml version="1.0" encoding="utf-8"?>
<!-- Generator: Adobe Illustrator 27.0.0, SVG Export Plug-In . SVG Version: 6.00 Build 0)  -->
<svg version="1.1" id="Layer_1" xmlns="http://www.w3.org/2000/svg" xmlns:xlink="http://www.w3.org/1999/xlink" x="0px" y="0px"
	 viewBox="0 0 800 800" style="enable-background:new 0 0 800 800;" xml:space="preserve">
<style type="text/css">
	.st0{fill:#CCD1D9;}
	.st1{fill:#E6E9ED;}
	.st2{fill:#434A54;}
	.st3{fill:#4FC2E9;}
	.st4{fill:#5D9CEC;}
	.st5{fill:#4A89DC;}
</style>
<path class="st0" d="M783.3,400c0,211.3-171.6,382.6-383.3,382.6C188.3,782.6,16.7,611.3,16.7,400C16.7,188.7,188.3,17.4,400,17.4
	C611.7,17.4,783.3,188.7,783.3,400z"/>
<path class="st1" d="M400,799.3c-54,0-106.4-10.6-155.7-31.4c-47.6-20.1-90.4-48.9-127.1-85.5C80.4,645.7,51.6,603,31.4,555.4
	C10.6,506.2,0,453.9,0,400c0-53.9,10.6-106.2,31.4-155.4c20.2-47.6,49-90.3,85.7-126.9c36.7-36.6,79.5-65.4,127.1-85.5
	C293.6,11.3,346,0.7,400,0.7s106.4,10.6,155.7,31.4c47.6,20.1,90.4,48.9,127.1,85.5c36.7,36.7,65.6,79.4,85.7,126.9
	C789.4,293.8,800,346.1,800,400c0,53.9-10.6,106.2-31.4,155.4c-20.1,47.6-49,90.3-85.7,126.9c-36.7,36.6-79.5,65.4-127.1,85.5
	C506.4,788.7,454,799.3,400,799.3z M400,34c-98,0-190,38.1-259.3,107.2C71.5,210.4,33.3,302.2,33.3,400s38.1,189.6,107.4,258.8
	C210,727.9,302,766,400,766s190-38.1,259.3-107.2c69.3-69.1,107.4-161,107.4-258.8s-38.1-189.6-107.4-258.8C590,72.1,498,34,400,34z
	"/>
<g>
	<path class="st2" d="M411.8,38.2c6.5,6.5,6.5,17.1,0,23.6c-6.5,6.5-17.1,6.5-23.6,0c-6.5-6.5-6.5-17.1,0-23.6
		C394.7,31.7,405.3,31.7,411.8,38.2z"/>
	<path class="st2" d="M411.8,738.2c6.5,6.5,6.5,17.1,0,23.6c-6.5,6.5-17.1,6.5-23.6,0c-6.5-6.5-6.5-17.1,0-23.6
		C394.7,731.7,405.3,731.7,411.8,738.2z"/>
	<path class="st2" d="M229.3,80.8c8.9,2.4,14.2,11.5,11.8,20.4c-2.4,8.9-11.5,14.2-20.4,11.8c-8.9-2.4-14.2-11.5-11.8-20.4
		C211.3,83.7,220.4,78.4,229.3,80.8z"/>
	<path class="st2" d="M579.3,687c8.9,2.4,14.2,11.5,11.8,20.4c-2.4,8.9-11.5,14.2-20.4,11.8c-8.9-2.4-14.2-11.5-11.8-20.4
		C561.3,689.9,570.4,684.6,579.3,687z"/>
	<path class="st2" d="M92.6,208.9c8.9-2.4,18,2.9,20.4,11.8c2.4,8.9-2.9,18-11.8,20.4c-8.9,2.4-18-2.9-20.4-11.8
		C78.4,220.4,83.7,211.3,92.6,208.9z"/>
	<path class="st2" d="M698.8,558.9c8.9-2.4,18,2.9,20.4,11.8c2.4,8.9-2.9,18-11.8,20.4c-8.9,2.4-18-2.9-20.4-11.8
		C684.6,570.4,689.9,561.3,698.8,558.9z"/>
	<path class="st2" d="M38.2,388.2c6.5-6.5,17.1-6.5,23.6,0c6.5,6.5,6.5,17.1,0,23.6c-6.5,6.5-17.1,6.5-23.6,0
		C31.7,405.3,31.7,394.7,38.2,388.2z"/>
	<path class="st2" d="M738.2,388.2c6.5-6.5,17.1-6.5,23.6,0c6.5,6.5,6.5,17.1,0,23.6c-6.5,6.5-17.1,6.5-23.6,0
		C731.7,405.3,731.7,394.7,738.2,388.2z"/>
	<path class="st2" d="M80.8,570.7c2.4-8.9,11.5-14.2,20.4-11.8c8.9,2.4,14.2,11.5,11.8,20.4c-2.4,8.9-11.5,14.2-20.4,11.8
		C83.7,588.7,78.4,579.6,80.8,570.7z"/>
	<path class="st2" d="M687,220.7c2.4-8.9,11.5-14.2,20.4-11.8c8.9,2.4,14.2,11.5,11.8,20.4s-11.5,14.2-20.4,11.8
		C689.9,238.7,684.6,229.6,687,220.7z"/>
	<path class="st2" d="M208.9,707.4c-2.4-8.9,2.9-18,11.8-20.4c8.9-2.4,18,2.9,20.4,11.8s-2.9,18-11.8,20.4
		C220.4,721.6,211.3,716.3,208.9,707.4z"/>
	<path class="st2" d="M558.9,101.2c-2.4-8.9,2.9-18,11.8-20.4c8.9-2.4,18,2.9,20.4,11.8c2.4,8.9-2.9,18-11.8,20.4
		C570.4,115.4,561.3,110.1,558.9,101.2z"/>
</g>
<path class="st3" d="M715.6,400c0,174-141.3,315-315.6,315C225.7,715,84.4,574,84.4,400C84.4,226,225.7,85,400,85
	C574.3,85,715.6,226,715.6,400z"/>
<path class="st4" d="M661.2,433.3l-52.8-37.2l-88,30.8l-45-22.5L400,428.8l-57.9-24.4L264.1,432c0,0-52.4-26.2-55.7-24.1
	c-3.4,2.1-38.8,8.7-38.8,8.7l-85.1,16.7l29.2,99.2l78.2,107.4l152.1,68.1l128.5-4.8l115.3-38.2l79.1-76.4l53.1-155.2L661.2,433.3
	L661.2,433.3z"/>
<g>
	<path class="st5" d="M713.9,450h-47.2c-2.6,0-5.2-0.6-7.5-1.8L600,418.6l-59.2,29.6c-4.7,2.3-10.2,2.3-14.9,0l-59.2-29.6
		l-59.2,29.6c-4.7,2.3-10.2,2.3-14.9,0l-59.2-29.6l-59.2,29.6c-4.7,2.3-10.2,2.3-14.9,0L200,418.6l-59.2,29.6
		c-2.3,1.1-4.9,1.8-7.4,1.8H86.1c-9.2,0-16.7-7.5-16.7-16.7c0-9.2,7.5-16.7,16.7-16.7h43.3l63.1-31.6c4.7-2.3,10.2-2.3,14.9,0
		l59.2,29.6l59.2-29.6c4.7-2.3,10.2-2.3,14.9,0l59.2,29.6l59.2-29.6c4.7-2.3,10.2-2.3,14.9,0l59.2,29.6l59.2-29.6
		c4.7-2.3,10.2-2.3,14.9,0l63.2,31.6h43.3c9.2,0,16.7,7.4,16.7,16.7C730.5,442.5,723.1,450,713.9,450z"/>
	<path class="st5" d="M683.6,550h-16.9c-2.6,0-5.2-0.6-7.5-1.8L600,518.6l-59.2,29.6c-4.7,2.3-10.2,2.3-14.9,0l-59.2-29.6
		l-59.2,29.6c-4.7,2.3-10.2,2.3-14.9,0l-59.2-29.6l-59.2,29.6c-4.7,2.3-10.2,2.3-14.9,0L200,518.6l-59.2,29.6
		c-2.3,1.1-4.9,1.8-7.4,1.8H118c-9.2,0-16.7-7.5-16.7-16.7s7.5-16.7,16.7-16.7h11.4l63.1-31.6c4.7-2.3,10.2-2.3,14.9,0l59.2,29.6
		l59.2-29.6c4.7-2.3,10.2-2.3,14.9,0l59.2,29.6l59.2-29.6c4.7-2.3,10.2-2.3,14.9,0l59.2,29.6l59.2-29.6c4.7-2.3,10.2-2.3,14.9,0
		l63.2,31.6h13c9.2,0,16.7,7.4,16.7,16.7S692.8,550,683.6,550z"/>
	<path class="st5" d="M533.3,650c-2.5,0-5.1-0.6-7.4-1.8l-59.2-29.6l-59.2,29.6c-4.7,2.3-10.2,2.3-14.9,0l-59.2-29.6l-59.2,29.6
		c-4.7,2.3-10.2,2.3-14.9,0L200,618.6l-23,11.5c-8.2,4.1-18.2,0.8-22.4-7.5c-4.1-8.2-0.8-18.2,7.5-22.3l30.5-15.3
		c4.7-2.3,10.2-2.3,14.9,0l59.2,29.6l59.2-29.6c4.7-2.3,10.2-2.3,14.9,0l59.2,29.6l59.2-29.6c4.7-2.3,10.2-2.3,14.9,0l59.2,29.6
		l59.2-29.6c4.7-2.3,10.2-2.3,14.9,0l30.5,15.3c8.3,4.1,11.6,14.1,7.5,22.4c-4.1,8.2-14.1,11.5-22.4,7.4l-23-11.5l-59.2,29.6
		C538.5,649.4,535.9,650,533.3,650z"/>
</g>
<path class="st1" d="M400,731.7c-88.8,0-172.2-34.5-235-97.1c-62.8-62.6-97.3-146-97.3-234.6s34.6-171.9,97.3-234.6
	c62.8-62.6,146.2-97.1,235-97.1c88.7,0,172.2,34.5,235,97.1c62.8,62.6,97.3,146,97.3,234.6S697.7,571.9,635,634.6
	C572.2,697.2,488.7,731.7,400,731.7z M400,101.6c-79.9,0-154.9,31.1-211.4,87.4C132.1,245.4,101,320.3,101,400s31.1,154.6,87.6,211
	c56.5,56.3,131.5,87.4,211.4,87.4s155-31.1,211.4-87.4c56.5-56.4,87.5-131.3,87.5-211s-31.1-154.6-87.5-211
	C555,132.7,479.9,101.6,400,101.6z"/>
<g>
	<path class="st2" d="M570.7,283.8c-25.7-6.4-47-4-63.3,7.2c-3.6,2.4-6.6,5.2-9.3,7.9c-18.9-16-48.7-18.1-66.7-16
		c-9.1,1.1-15.6,9.3-14.6,18.5c1.1,9.1,9.3,15.7,18.4,14.6c0.1,0,13.1-1.4,25.9,1.5c5.8,1.3,19.3,4.3,21.1,18.1
		c1.1,8.4,8.3,14.5,16.5,14.5c0.7,0,1.5,0,2.2-0.1c7.6-1,13.4-7.1,14.3-14.4l0,0v0.2c0-0.1,1.9-11.3,11.1-17.4
		c10.1-6.7,25.3-4.9,36.2-2.1c8.9,2.2,18-3.2,20.2-12.2C585.1,295.1,579.6,286,570.7,283.8z"/>
	<path class="st2" d="M399.6,183.3c-47.1,1.2-75.9,22.2-91.8,39.5c-2.4,2.6-4.5,5.2-6.4,7.7c-10.7-14.6-23.9-22.2-34.9-26.1
		c-16.3-5.9-30.6-4.8-34.6-4.3c-6.7,0.7-12.6,5.4-14.5,12.3c-2.4,8.9,2.9,18,11.8,20.4c2.2,0.6,4.5,0.7,6.6,0.4l0,0l-0.2,0
		c3.8-0.5,37.1-3.6,48.3,37.8c2,7.4,8.7,12.3,16.1,12.3c1.4,0,2.9-0.2,4.4-0.6c5.7-1.5,9.9-5.9,11.5-11.1h0l0,0.1
		c0.7-2.2,18.2-53.3,84.6-55.1c9.2-0.2,16.5-7.9,16.2-17.1C416.4,190.4,408.8,183.1,399.6,183.3z"/>
</g>
</svg>
